<?xml version="1.0" encoding="UTF-8"?>
<svg width="376px" height="512px" viewBox="0 0 376 512" version="1.1" xmlns="http://www.w3.org/2000/svg" xmlns:xlink="http://www.w3.org/1999/xlink">
    <!-- Generator: Sketch 52.2 (67145) - http://www.bohemiancoding.com/sketch -->
    <title>id-card</title>
    <desc>Created with Sketch.</desc>
    <g id="LOGIN" stroke="none" stroke-width="1" fill="none" fill-rule="evenodd">
        <g id="Login" transform="translate(-490.000000, -50.000000)">
            <g id="id-card" transform="translate(678.000000, 306.000000) rotate(90.000000) translate(-678.000000, -306.000000) translate(422.000000, 118.000000)">
                <path d="M39.919,17.333 L204.8,17.333 L204.8,57.331 C204.8,60.302 205.98,63.151 208.081,65.252 C210.182,67.353 213.031,68.533 216.002,68.533 L270.399,68.533 L273.067,358.666 L39.919,358.666 C22.585,358.666 8.533,344.614 8.533,327.28 L8.533,48.719 C8.533,31.385 22.585,17.333 39.919,17.333 Z" id="Path" fill="#FFFFFF"></path>
                <path d="M472.081,17.333 L307.2,17.333 L307.2,57.331 C307.2,60.302 306.02,63.151 303.919,65.252 C301.818,67.353 298.969,68.533 295.998,68.533 L241.601,68.533 L238.933,358.666 L472.081,358.666 C489.415,358.666 503.467,344.614 503.467,327.28 L503.467,48.719 C503.467,31.385 489.415,17.333 472.081,17.333 Z" id="Path" fill="#A4C2F7"></path>
                <path d="M446.481,17.333 L65.519,17.333 C48.185,17.333 34.133,31.385 34.133,48.719 L34.133,327.281 C34.133,344.615 48.185,358.667 65.519,358.667 L446.481,358.667 C463.815,358.667 477.867,344.615 477.867,327.281 L477.867,48.719 C477.867,31.385 463.815,17.333 446.481,17.333 Z" id="Path" fill="#E3E7F2"></path>
                <path d="M189.322,249.062 L157.176,232.641 C154.982,231.52 153.6,229.264 153.601,226.799 L153.601,216.959 C169.312,209.848 180.68,195.659 184.192,178.776 C191.335,176.592 196.227,170.016 196.268,162.547 L196.268,154.014 C196.235,147.681 192.694,141.888 187.072,138.972 C183.311,106.878 162.095,93.893 128.001,93.893 C126.387,93.893 124.804,93.956 123.252,94.081 C111.707,95.301 100.089,92.567 90.299,86.327 C86.63,83.979 83.341,81.084 80.545,77.744 C80.08,77.13 79.26,76.905 78.546,77.195 C77.832,77.485 77.403,78.219 77.498,78.983 C77.839,81.971 78.348,85.452 79.104,89.256 C81.921,103.425 80.238,101.356 74.759,114.723 C71.654,122.496 69.671,130.672 68.87,139.004 C63.282,141.931 59.767,147.706 59.734,154.014 L59.734,162.547 C59.774,170.016 64.667,176.592 71.81,178.776 C75.323,195.659 86.69,209.849 102.401,216.959 L102.401,226.732 C102.401,229.231 100.981,231.514 98.738,232.617 L65.793,248.842 C56.798,253.748 51.201,263.175 51.201,273.421 L51.201,284.728 C51.201,294.368 85.585,299.08 128.001,299.08 C170.417,299.08 204.801,294.367 204.801,284.728 L204.801,274.107 C204.8,263.501 198.808,253.805 189.322,249.062 Z" id="Path" fill="#A4C2F7"></path>
                <g id="Group" fill="#428DFF">
                    <path d="M476.017,375.733 L35.983,375.733 C16.119,375.711 0.022,359.614 0,339.75 L0,36.25 C0.022,16.386 16.119,0.289 35.983,0.267 L476.016,0.267 C495.88,0.289 511.977,16.386 511.999,36.25 L511.999,339.75 C511.978,359.614 495.881,375.711 476.017,375.733 Z M35.983,17.333 C25.54,17.343 17.076,25.806 17.066,36.25 L17.066,339.75 C17.076,350.193 25.539,358.657 35.983,358.667 L476.016,358.667 C486.459,358.657 494.923,350.194 494.933,339.75 L494.933,36.25 C494.923,25.807 486.46,17.343 476.016,17.333 L35.983,17.333 Z" id="Shape" fill-rule="nonzero"></path>
                    <path d="M128,307.467 C42.6669974,307.467 42.667,291.434 42.667,284.584 L42.667,273.276 C42.662,259.906 49.967,247.604 61.709,241.209 L93.867,225.351 L93.867,222.142 C79.596,214.093 69.119,200.692 64.75,184.9 C56.404,180.5 51.185,171.835 51.2,162.4 L51.2,153.867 C51.213,146.094 54.777,138.753 60.875,133.934 C61.933,126.186 63.943,118.598 66.859,111.342 C68.126,108.25 69.201,105.95 70.068,104.067 C72.385,99.092 72.385,99.092 70.735,90.775 C69.927,86.7 69.385,82.992 69.027,79.8 C68.496,75.242 71.066,70.888 75.313,69.151 C79.56,67.414 84.445,68.718 87.26,72.342 C89.514,74.971 92.146,77.251 95.068,79.109 C103.27,84.239 112.958,86.464 122.576,85.426 C124.343,85.284 126.151,85.215 128.001,85.218 C167.143,85.218 189.651,101.568 194.976,133.826 C201.166,138.634 204.791,146.029 204.801,153.867 L204.801,162.4 C204.816,171.835 199.597,180.5 191.251,184.9 C186.883,200.691 176.405,214.093 162.134,222.142 L162.134,225.442 L193.176,241.3 C205.566,247.46 213.382,260.122 213.334,273.958 L213.334,284.583 C213.333,291.433 213.33422,307.467 128,307.467 Z M59.733,282.65 C65.058,285.892 86.716,290.4 128,290.4 C169.284,290.4 190.942,285.892 196.267,282.65 L196.267,273.958 C196.29,266.58 192.119,259.829 185.509,256.55 L185.442,256.517 L153.292,240.092 C148.231,237.525 145.05,232.325 145.067,226.65 L145.067,216.817 C145.064,213.409 147.093,210.327 150.225,208.983 C163.562,202.935 173.148,190.807 175.95,176.433 C176.703,173.6 178.859,171.353 181.658,170.483 C185.222,169.391 187.675,166.126 187.733,162.399 L187.733,153.866 C187.697,150.698 185.906,147.812 183.083,146.374 C180.598,145.059 178.919,142.607 178.591,139.816 C175.549,113.858 159.949,102.283 127.999,102.283 C126.616,102.283 125.257,102.333 123.932,102.441 C111.752,103.639 99.495,101.138 88.757,95.266 C89.488,100.809 88.357,106.437 85.54,111.266 C84.757,112.958 83.79,115.033 82.657,117.808 C79.86,124.831 78.073,132.216 77.349,139.741 C77.059,142.562 75.385,145.055 72.883,146.391 C70.079,147.836 68.303,150.712 68.266,153.866 L68.266,162.399 C68.324,166.126 70.777,169.39 74.341,170.482 C77.14,171.352 79.296,173.599 80.05,176.432 C82.852,190.806 92.437,202.934 105.775,208.982 C108.907,210.326 110.936,213.407 110.933,216.816 L110.933,226.583 C110.914,232.337 107.642,237.585 102.483,240.133 L69.566,256.358 C63.463,259.796 59.7,266.27 59.733,273.275 L59.733,282.65 Z" id="Shape" fill-rule="nonzero"></path>
                    <path d="M341.333,128.267 L256,128.267 C251.287,128.267 247.467,124.446 247.467,119.734 C247.467,115.021 251.288,111.201 256,111.201 L341.333,111.201 C346.046,111.201 349.866,115.022 349.866,119.734 C349.867,124.446 346.046,128.267 341.333,128.267 Z" id="Path"></path>
                    <path d="M384,128.267 L375.467,128.267 C370.754,128.267 366.934,124.446 366.934,119.734 C366.934,115.021 370.755,111.201 375.467,111.201 L384,111.201 C388.713,111.201 392.533,115.022 392.533,119.734 C392.533,124.446 388.713,128.267 384,128.267 Z" id="Path"></path>
                    <path d="M264.533,273.333 L256,273.333 C251.287,273.333 247.467,269.513 247.467,264.8 C247.467,260.087 251.288,256.267 256,256.267 L264.533,256.267 C269.246,256.267 273.066,260.087 273.066,264.8 C273.066,269.513 269.246,273.333 264.533,273.333 Z" id="Path"></path>
                    <path d="M315.733,273.333 L298.666,273.333 C293.953,273.333 290.133,269.513 290.133,264.8 C290.133,260.087 293.953,256.267 298.666,256.267 L315.733,256.267 C320.446,256.267 324.266,260.087 324.266,264.8 C324.266,269.513 320.446,273.333 315.733,273.333 Z" id="Path"></path>
                    <path d="M358.4,273.333 L349.867,273.333 C345.154,273.333 341.334,269.513 341.334,264.8 C341.334,260.087 345.155,256.267 349.867,256.267 L358.4,256.267 C363.113,256.267 366.933,260.087 366.933,264.8 C366.933,269.513 363.113,273.333 358.4,273.333 Z" id="Path"></path>
                    <path d="M409.6,273.333 L392.533,273.333 C387.82,273.333 384,269.513 384,264.8 C384,260.087 387.82,256.267 392.533,256.267 L409.6,256.267 C414.313,256.267 418.133,260.087 418.133,264.8 C418.133,269.513 414.313,273.333 409.6,273.333 Z" id="Path"></path>
                    <path d="M443.733,273.333 C441.463,273.355 439.279,272.464 437.674,270.858 C436.922,270.027 436.316,269.075 435.882,268.041 C435.445,267.015 435.213,265.914 435.199,264.799 C435.199,260.086 439.02,256.266 443.732,256.266 C448.445,256.266 452.265,260.086 452.265,264.799 C452.292,265.918 452.058,267.028 451.582,268.041 C451.149,269.094 450.512,270.052 449.707,270.858 C448.098,272.405 445.965,273.288 443.733,273.333 Z" id="Path"></path>
                    <path d="M443.733,179.467 L256,179.467 C251.287,179.467 247.467,175.646 247.467,170.934 C247.467,166.221 251.288,162.401 256,162.401 L443.733,162.401 C448.446,162.401 452.266,166.222 452.266,170.934 C452.267,175.646 448.446,179.467 443.733,179.467 Z" id="Path"></path>
                    <path d="M443.733,230.667 L256,230.667 C251.287,230.667 247.467,226.846 247.467,222.134 C247.467,217.421 251.288,213.601 256,213.601 L443.733,213.601 C448.446,213.601 452.266,217.422 452.266,222.134 C452.267,226.846 448.446,230.667 443.733,230.667 Z" id="Path"></path>
                </g>
            </g>
        </g>
    </g>
</svg>