<?xml version="1.0" encoding="UTF-8"?>
<svg width="17px" height="22px" viewBox="0 0 17 22" version="1.1" xmlns="http://www.w3.org/2000/svg" xmlns:xlink="http://www.w3.org/1999/xlink">
    <!-- Generator: Sketch 52.2 (67145) - http://www.bohemiancoding.com/sketch -->
    <title>flash-off copy</title>
    <desc>Created with Sketch.</desc>
    <g id="Page-1" stroke="none" stroke-width="1" fill="none" fill-rule="evenodd">
        <g id="Panel-de-fotos-Copy-3" transform="translate(-98.000000, -276.000000)" fill="#8D98AC" fill-rule="nonzero" stroke="#8D98AC" stroke-width="0.5">
            <g id="flash-off-copy" transform="translate(99.000000, 277.000000)">
                <path d="M14.6942372,16.7888674 L10.885289,12.9324613 L13.9266451,8.14253968 C14.0078178,8.01437562 14.0134506,7.85121157 13.9411126,7.71734439 C13.8695849,7.58386783 13.7305418,7.5004694 13.5802332,7.5004694 L9.05350009,7.5004694 L9.05350009,0.417344767 C9.05350009,0.232618214 8.93293689,0.0698447854 8.75770553,0.0173838506 C8.5857149,-0.0359364591 8.39439558,0.0365244746 8.29555305,0.191954154 L4.38486887,6.35097727 L0.702463856,2.62269622 C0.541700072,2.45992279 0.281283575,2.45992279 0.120558371,2.62269622 C-0.040166833,2.78546964 -0.0402054132,3.04910244 0.120558371,3.21187587 L3.92950651,7.06828192 L0.888150464,11.8582035 C0.806977677,11.9863676 0.801344965,12.1495317 0.873682881,12.2833988 C0.945210612,12.4168754 1.08425373,12.5002738 1.23456228,12.5002738 L5.76129544,12.5002738 L5.76129544,19.5833594 C5.76129544,19.7680859 5.88185863,19.9308594 6.05709,19.9833203 C6.09486004,19.9947266 6.13425044,20 6.17283066,20 C6.310292,20 6.44208203,19.93 6.51924248,19.80875 L10.4299267,13.6496878 L14.1123317,17.3780079 C14.1926943,17.4593751 14.2980183,17.5000783 14.4033037,17.5000783 C14.5085891,17.5000783 14.6138746,17.4593751 14.6942757,17.3780079 C14.8550009,17.2152736 14.8550009,16.9516017 14.6942372,16.7888674 Z M6.58436589,18.1645313 L6.58436589,12.0835942 C6.58436589,11.8532817 6.40029965,11.6669536 6.17283066,11.6669536 L1.98849697,11.6669536 L4.52533945,7.67152408 L9.83405513,13.0464066 L6.58436589,18.1645313 Z M10.2894561,12.3291801 L4.98077897,6.95429755 L8.23046821,1.83617282 L8.23046821,7.91711 C8.23046821,8.14742249 8.41453445,8.33375061 8.64200344,8.33375061 L12.8263371,8.33375061 L10.2894561,12.3291801 Z" id="Shape"></path>
            </g>
        </g>
    </g>
</svg>